<svg xmlns="http://www.w3.org/2000/svg" width="760" height="460" viewBox="0 0 760 460">
<style>
text { font-family: Arial, sans-serif; fill: #222; }
.title { font-size: 21px; font-weight: 700; }
.label { font-size: 13px; }
.tick { font-size: 11px; fill: #444; }
.axis { stroke: #333; stroke-width: 1.2; fill: none; }
.grid { stroke: #d4d4d4; stroke-dasharray: 2 4; stroke-width: 1; }
.up { fill: none; stroke: #1f77b4; stroke-width: 1.5; }
.down { fill: none; stroke: #d62728; stroke-width: 1.2; }
.pdos1 { fill: none; stroke: #2ca02c; stroke-width: 1.4; }
.pdos2 { fill: none; stroke: #9467bd; stroke-width: 1.4; }
.pdos3 { fill: none; stroke: #ff7f0e; stroke-width: 1.4; }
.legend-line { stroke-width: 2.4; stroke-linecap: round; }
.legend-dot { stroke: white; stroke-width: 1; }
</style>
<rect width="100%" height="100%" fill="white"/>
<text x="380.0" y="30" text-anchor="middle" class="title">Ni_PBE_FM total and spin-resolved DOS</text>
<rect x="80" y="60" width="630" height="330" class="axis"/>
<line x1="80" y1="225.0" x2="710" y2="225.0" class="grid"/>
<line x1="395.0" y1="60" x2="395.0" y2="390" class="grid"/>
<polyline points="80.3,222.6 80.6,222.5 80.9,222.5 81.3,222.5 81.7,222.4 82.0,222.4 82.3,222.4 82.7,222.4 83.0,222.4 83.4,222.4 83.7,222.4 84.1,222.4 84.4,222.4 84.8,222.5 85.1,222.5 85.4,222.5 85.8,222.5 86.1,222.5 86.5,222.5 86.8,222.5 87.2,222.5 87.5,222.4 87.8,222.4 88.2,222.3 88.5,222.3 88.9,222.2 89.2,222.2 89.6,222.1 89.9,222.1 90.3,222.1 90.6,222.1 90.9,222.1 91.3,222.1 91.7,222.1 92.0,222.1 92.3,222.1 92.7,222.1 93.0,222.1 93.3,222.1 93.7,222.2 94.1,222.2 94.4,222.2 94.7,222.2 95.1,222.1 95.4,222.1 95.8,222.1 96.1,222.1 96.5,222.1 96.8,222.1 97.2,222.1 97.5,222.0 97.8,222.0 98.2,222.0 98.5,222.0 98.9,221.9 99.2,221.9 99.6,221.9 99.9,221.8 100.2,221.8 100.6,221.8 100.9,221.7 101.3,221.7 101.6,221.7 102.0,221.7 102.3,221.7 102.7,221.7 103.0,221.7 103.3,221.7 103.7,221.7 104.1,221.7 104.4,221.7 104.7,221.8 105.1,221.8 105.4,221.8 105.7,221.9 106.1,221.9 106.5,221.9 106.8,221.9 107.1,221.9 107.5,221.8 107.8,221.8 108.2,221.7 108.5,221.7 108.9,221.6 109.2,221.5 109.6,221.4 109.9,221.3 110.2,221.3 110.6,221.2 110.9,221.2 111.3,221.2 111.6,221.2 112.0,221.2 112.3,221.3 112.7,221.3 113.0,221.4 113.3,221.4 113.7,221.4 114.1,221.5 114.4,221.5 114.7,221.5 115.1,221.5 115.4,221.5 115.7,221.5 116.1,221.5 116.5,221.5 116.8,221.4 117.1,221.4 117.5,221.3 117.8,221.3 118.2,221.2 118.5,221.2 118.9,221.2 119.2,221.1 119.6,221.1 119.9,221.1 120.2,221.0 120.6,221.0 120.9,221.0 121.3,221.0 121.6,221.0 122.0,221.0 122.3,221.0 122.6,221.0 123.0,221.0 123.3,221.0 123.7,220.9 124.0,220.9 124.4,220.9 124.7,220.9 125.1,220.9 125.4,220.9 125.8,220.9 126.1,220.9 126.5,220.9 126.8,220.9 127.1,220.9 127.5,220.9 127.8,220.9 128.2,220.9 128.5,221.0 128.9,221.0 129.2,221.0 129.5,220.9 129.9,220.9 130.2,220.9 130.6,220.9 130.9,220.8 131.3,220.8 131.6,220.7 132.0,220.6 132.3,220.6 132.6,220.5 133.0,220.4 133.4,220.4 133.7,220.3 134.0,220.3 134.4,220.2 134.7,220.2 135.0,220.2 135.4,220.2 135.8,220.2 136.1,220.3 136.4,220.3 136.8,220.4 137.1,220.5 137.5,220.5 137.8,220.6 138.2,220.6 138.5,220.7 138.9,220.7 139.2,220.7 139.5,220.7 139.9,220.6 140.2,220.6 140.6,220.5 140.9,220.4 141.3,220.3 141.6,220.2 141.9,220.1 142.3,220.0 142.6,219.9 143.0,219.9 143.3,219.8 143.7,219.8 144.0,219.7 144.4,219.7 144.7,219.7 145.0,219.8 145.4,219.8 145.8,219.8 146.1,219.8 146.4,219.9 146.8,219.9 147.1,219.9 147.5,220.0 147.8,220.0 148.2,220.0 148.5,220.0 148.9,220.0 149.2,220.0 149.5,219.9 149.9,219.9 150.2,219.8 150.6,219.8 150.9,219.7 151.3,219.7 151.6,219.6 151.9,219.6 152.3,219.5 152.6,219.5 153.0,219.5 153.3,219.4 153.7,219.4 154.0,219.4 154.4,219.4 154.7,219.4 155.0,219.4 155.4,219.4 155.8,219.4 156.1,219.3 156.4,219.3 156.8,219.3 157.1,219.2 157.4,219.2 157.8,219.2 158.2,219.1 158.5,219.1 158.8,219.0 159.2,219.0 159.5,219.0 159.9,218.9 160.2,218.9 160.6,218.9 160.9,218.9 161.3,218.9 161.6,218.9 161.9,218.9 162.3,219.0 162.6,219.0 163.0,219.0 163.3,219.0 163.7,219.0 164.0,219.0 164.3,219.0 164.7,218.9 165.0,218.9 165.4,218.8 165.7,218.7 166.1,218.6 166.4,218.5 166.8,218.4 167.1,218.3 167.4,218.2 167.8,218.1 168.2,218.0 168.5,218.0 168.8,217.9 169.2,217.9 169.5,217.9 169.9,217.9 170.2,218.0 170.6,218.0 170.9,218.1 171.2,218.1 171.6,218.2 171.9,218.2 172.3,218.2 172.6,218.2 173.0,218.2 173.3,218.2 173.7,218.2 174.0,218.1 174.3,218.0 174.7,217.9 175.0,217.8 175.4,217.6 175.7,217.5 176.1,217.4 176.4,217.2 176.7,217.1 177.1,217.0 177.5,216.9 177.8,216.8 178.2,216.8 178.5,216.7 178.8,216.7 179.2,216.8 179.5,216.8 179.9,216.9 180.2,216.9 180.6,217.0 180.9,217.1 181.2,217.1 181.6,217.1 181.9,217.1 182.3,217.0 182.6,216.9 183.0,216.8 183.3,216.7 183.7,216.6 184.0,216.4 184.3,216.2 184.7,216.0 185.0,215.9 185.4,215.7 185.7,215.6 186.1,215.5 186.4,215.4 186.7,215.3 187.1,215.3 187.5,215.3 187.8,215.3 188.1,215.3 188.5,215.3 188.8,215.4 189.2,215.4 189.5,215.4 189.9,215.4 190.2,215.4 190.6,215.3 190.9,215.2 191.2,215.0 191.6,214.8 191.9,214.6 192.3,214.4 192.6,214.2 193.0,213.9 193.3,213.7 193.6,213.5 194.0,213.3 194.3,213.2 194.7,213.1 195.0,213.0 195.4,212.9 195.7,212.9 196.1,212.9 196.4,212.9 196.7,212.9 197.1,212.8 197.5,212.8 197.8,212.6 198.1,212.5 198.5,212.3 198.8,212.0 199.1,211.7 199.5,211.4 199.9,211.0 200.2,210.6 200.5,210.2 200.9,209.9 201.2,209.5 201.6,209.1 201.9,208.8 202.3,208.4 202.6,208.1 203.0,207.7 203.3,207.4 203.6,207.0 204.0,206.6 204.3,206.2 204.7,205.8 205.0,205.4 205.4,204.9 205.7,204.4 206.0,203.9 206.4,203.4 206.7,202.8 207.1,202.2 207.4,201.6 207.8,201.0 208.1,200.3 208.5,199.6 208.8,198.9 209.1,198.2 209.5,197.4 209.9,196.6 210.2,195.8 210.5,195.0 210.9,194.3 211.2,193.5 211.6,192.8 211.9,192.1 212.3,191.5 212.6,190.9 213.0,190.4 213.3,190.0 213.6,189.6 214.0,189.3 214.3,189.0 214.7,188.8 215.0,188.6 215.4,188.5 215.7,188.5 216.0,188.4 216.4,188.4 216.7,188.4 217.1,188.4 217.4,188.4 217.8,188.4 218.1,188.4 218.5,188.4 218.8,188.4 219.1,188.3 219.5,188.2 219.9,188.1 220.2,188.1 220.5,188.0 220.9,187.8 221.2,187.7 221.6,187.6 221.9,187.5 222.3,187.4 222.6,187.3 222.9,187.3 223.3,187.2 223.6,187.1 224.0,187.1 224.3,187.0 224.7,187.0 225.0,186.9 225.4,186.9 225.7,186.8 226.0,186.8 226.4,186.7 226.7,186.6 227.1,186.4 227.4,186.3 227.8,186.1 228.1,185.9 228.4,185.6 228.8,185.3 229.1,184.9 229.5,184.4 229.8,183.9 230.2,183.3 230.5,182.7 230.9,181.9 231.2,181.2 231.6,180.4 231.9,179.5 232.3,178.6 232.6,177.7 232.9,176.9 233.3,176.0 233.6,175.1 234.0,174.3 234.3,173.5 234.7,172.8 235.0,172.1 235.3,171.4 235.7,170.8 236.0,170.2 236.4,169.6 236.7,169.0 237.1,168.5 237.4,168.0 237.8,167.5 238.1,167.1 238.4,166.6 238.8,166.1 239.2,165.7 239.5,165.2 239.8,164.7 240.2,164.2 240.5,163.7 240.8,163.2 241.2,162.7 241.6,162.2 241.9,161.6 242.2,161.0 242.6,160.5 242.9,159.9 243.3,159.3 243.6,158.7 244.0,158.2 244.3,157.7 244.7,157.2 245.0,156.7 245.3,156.4 245.7,156.1 246.0,155.8 246.4,155.7 246.7,155.6 247.1,155.5 247.4,155.6 247.8,155.6 248.1,155.8 248.4,156.0 248.8,156.3 249.2,156.6 249.5,157.0 249.8,157.4 250.2,157.8 250.5,158.3 250.8,158.9 251.2,159.5 251.6,160.1 251.9,160.8 252.2,161.6 252.6,162.3 252.9,163.0 253.3,163.8 253.6,164.5 254.0,165.2 254.3,165.8 254.7,166.3 255.0,166.8 255.3,167.2 255.7,167.5 256.0,167.7 256.4,167.8 256.7,167.8 257.1,167.7 257.4,167.6 257.7,167.4 258.1,167.2 258.4,167.0 258.8,166.7 259.1,166.5 259.5,166.3 259.8,166.2 260.2,166.1 260.5,166.0 260.8,166.0 261.2,166.0 261.6,166.0 261.9,166.1 262.2,166.2 262.6,166.3 262.9,166.5 263.2,166.6 263.6,166.8 264.0,167.0 264.3,167.2 264.6,167.5 265.0,167.7 265.3,168.0 265.7,168.3 266.0,168.7 266.4,169.0 266.7,169.3 267.1,169.7 267.4,170.0 267.7,170.4 268.1,170.7 268.4,171.0 268.8,171.3 269.1,171.5 269.5,171.7 269.8,171.8 270.1,171.9 270.5,171.9 270.8,171.7 271.2,171.5 271.5,171.1 271.9,170.6 272.2,170.0 272.6,169.2 272.9,168.4 273.2,167.4 273.6,166.4 274.0,165.3 274.3,164.2 274.6,163.1 275.0,162.0 275.3,160.9 275.7,159.9 276.0,159.0 276.4,158.1 276.7,157.3 277.0,156.5 277.4,155.8 277.7,155.1 278.1,154.4 278.4,153.8 278.8,153.2 279.1,152.5 279.5,151.9 279.8,151.3 280.1,150.8 280.5,150.3 280.8,149.7 281.2,149.2 281.5,148.8 281.9,148.3 282.2,147.8 282.6,147.3 282.9,146.8 283.3,146.3 283.6,145.8 284.0,145.2 284.3,144.6 284.6,144.1 285.0,143.6 285.3,143.2 285.7,142.8 286.0,142.5 286.4,142.4 286.7,142.3 287.0,142.3 287.4,142.4 287.7,142.6 288.1,142.8 288.4,142.9 288.8,143.1 289.1,143.2 289.5,143.2 289.8,143.2 290.1,143.1 290.5,142.9 290.9,142.6 291.2,142.2 291.5,141.7 291.9,141.1 292.2,140.4 292.5,139.7 292.9,138.8 293.3,137.8 293.6,136.8 293.9,135.6 294.3,134.3 294.6,132.9 295.0,131.4 295.3,130.0 295.7,128.5 296.0,127.0 296.4,125.6 296.7,124.4 297.0,123.2 297.4,122.3 297.7,121.6 298.1,121.1 298.4,120.8 298.8,120.7 299.1,120.8 299.4,121.0 299.8,121.3 300.1,121.7 300.5,122.1 300.8,122.5 301.2,122.8 301.5,122.9 301.9,122.9 302.2,122.8 302.5,122.4 302.9,121.7 303.3,120.9 303.6,119.7 303.9,118.3 304.3,116.7 304.6,114.8 304.9,112.8 305.3,110.6 305.7,108.4 306.0,106.1 306.3,103.9 306.7,102.0 307.0,100.3 307.4,98.9 307.7,98.0 308.1,97.7 308.4,97.9 308.8,98.7 309.1,100.0 309.4,101.9 309.8,104.3 310.1,107.1 310.5,110.1 310.8,113.4 311.2,116.8 311.5,120.1 311.9,123.4 312.2,126.6 312.5,129.5 312.9,132.3 313.3,134.8 313.6,137.1 313.9,139.1 314.3,141.0 314.6,142.6 314.9,144.1 315.3,145.5 315.7,146.7 316.0,147.8 316.3,148.9 316.7,149.8 317.0,150.7 317.4,151.5 317.7,152.3 318.1,152.9 318.4,153.6 318.8,154.2 319.1,154.8 319.4,155.3 319.8,155.8 320.1,156.2 320.5,156.7 320.8,157.1 321.2,157.5 321.5,157.8 321.8,158.1 322.2,158.4 322.5,158.7 322.9,158.9 323.2,159.1 323.6,159.2 323.9,159.3 324.3,159.3 324.6,159.3 324.9,159.2 325.3,159.1 325.7,158.9 326.0,158.6 326.3,158.2 326.7,157.7 327.0,157.1 327.4,156.3 327.7,155.5 328.1,154.5 328.4,153.3 328.7,152.1 329.1,150.7 329.4,149.2 329.8,147.7 330.1,146.1 330.5,144.5 330.8,142.9 331.2,141.4 331.5,139.9 331.8,138.5 332.2,137.2 332.5,136.1 332.9,135.0 333.2,134.1 333.6,133.2 333.9,132.5 334.2,131.8 334.6,131.2 335.0,130.6 335.3,130.0 335.6,129.4 336.0,128.8 336.3,128.2 336.7,127.6 337.0,127.1 337.4,126.5 337.7,126.0 338.1,125.6 338.4,125.2 338.7,124.9 339.1,124.8 339.4,124.8 339.8,124.9 340.1,125.2 340.5,125.6 340.8,126.1 341.1,126.8 341.5,127.5 341.8,128.3 342.2,129.1 342.5,130.0 342.9,130.9 343.2,131.8 343.6,132.7 343.9,133.6 344.2,134.4 344.6,135.2 345.0,136.0 345.3,136.7 345.6,137.5 346.0,138.1 346.3,138.8 346.7,139.4 347.0,139.9 347.4,140.4 347.7,140.9 348.1,141.3 348.4,141.7 348.7,142.0 349.1,142.3 349.4,142.6 349.8,142.7 350.1,142.9 350.5,143.0 350.8,143.1 351.1,143.1 351.5,143.2 351.8,143.2 352.2,143.2 352.5,143.2 352.9,143.2 353.2,143.2 353.6,143.1 353.9,143.1 354.2,143.0 354.6,142.8 355.0,142.6 355.3,142.4 355.6,142.1 356.0,141.8 356.3,141.4 356.6,141.0 357.0,140.5 357.4,140.0 357.7,139.5 358.0,138.9 358.4,138.3 358.7,137.7 359.1,137.0 359.4,136.3 359.8,135.5 360.1,134.7 360.5,133.8 360.8,132.8 361.1,131.8 361.5,130.6 361.8,129.2 362.2,127.7 362.5,126.0 362.9,124.0 363.2,121.7 363.5,119.1 363.9,116.1 364.2,112.8 364.6,109.1 364.9,105.0 365.3,100.6 365.6,96.0 366.0,91.1 366.3,86.2 366.6,81.3 367.0,76.5 367.4,72.1 367.7,68.2 368.0,64.9 368.4,62.3 368.7,60.7 369.0,60.0 369.4,60.4 369.8,61.7 370.1,64.1 370.4,67.5 370.8,71.8 371.1,76.8 371.5,82.4 371.8,88.6 372.2,95.1 372.5,101.8 372.9,108.6 373.2,115.4 373.5,122.1 373.9,128.7 374.2,135.1 374.6,141.4 374.9,147.5 375.3,153.4 375.6,159.2 375.9,164.8 376.3,170.2 376.6,175.5 377.0,180.5 377.3,185.3 377.7,189.8 378.0,193.9 378.4,197.7 378.7,201.1 379.1,204.0 379.4,206.5 379.8,208.5 380.1,210.2 380.4,211.5 380.8,212.5 381.1,213.3 381.5,213.8 381.8,214.2 382.2,214.5 382.5,214.7 382.9,214.8 383.2,214.9 383.5,214.8 383.9,214.8 384.2,214.6 384.6,214.5 384.9,214.2 385.3,213.9 385.6,213.6 385.9,213.3 386.3,213.0 386.6,212.7 387.0,212.4 387.3,212.3 387.7,212.2 388.0,212.2 388.4,212.3 388.7,212.4 389.1,212.7 389.4,212.9 389.8,213.2 390.1,213.4 390.4,213.6 390.8,213.8 391.1,213.9 391.5,213.9 391.8,213.9 392.2,213.9 392.5,213.8 392.8,213.7 393.2,213.6 393.5,213.6 393.9,213.5 394.2,213.5 394.6,213.6 394.9,213.7 395.3,213.8 395.6,213.9 395.9,214.0 396.3,214.2 396.7,214.2 397.0,214.3 397.3,214.3 397.7,214.2 398.0,214.1 398.3,214.0 398.7,213.8 399.1,213.7 399.4,213.5 399.7,213.4 400.1,213.3 400.4,213.3 400.8,213.3 401.1,213.4 401.5,213.5 401.8,213.7 402.2,213.9 402.5,214.1 402.8,214.2 403.2,214.4 403.5,214.5 403.9,214.6 404.2,214.6 404.6,214.6 404.9,214.6 405.2,214.5 405.6,214.5 405.9,214.4 406.3,214.3 406.6,214.3 407.0,214.2 407.3,214.2 407.7,214.3 408.0,214.3 408.3,214.4 408.7,214.5 409.1,214.6 409.4,214.8 409.7,214.8 410.1,214.9 410.4,215.0 410.7,215.0 411.1,214.9 411.5,214.9 411.8,214.8 412.2,214.7 412.5,214.5 412.8,214.4 413.2,214.3 413.5,214.2 413.9,214.1 414.2,214.1 414.6,214.1 414.9,214.1 415.2,214.1 415.6,214.2 415.9,214.3 416.3,214.5 416.6,214.6 417.0,214.8 417.3,214.9 417.7,215.1 418.0,215.2 418.3,215.3 418.7,215.4 419.1,215.4 419.4,215.5 419.7,215.5 420.1,215.5 420.4,215.4 420.7,215.4 421.1,215.3 421.5,215.3 421.8,215.2 422.1,215.1 422.5,215.0 422.8,214.9 423.2,214.9 423.5,214.8 423.9,214.8 424.2,214.7 424.6,214.7 424.9,214.7 425.2,214.7 425.6,214.8 425.9,214.9 426.3,215.0 426.6,215.0 427.0,215.1 427.3,215.2 427.6,215.3 428.0,215.4 428.3,215.5 428.7,215.5 429.0,215.5 429.4,215.4 429.7,215.4 430.1,215.3 430.4,215.2 430.7,215.1 431.1,215.0 431.5,215.0 431.8,214.9 432.1,214.9 432.5,214.9 432.8,214.9 433.2,215.0 433.5,215.1 433.9,215.2 434.2,215.3 434.5,215.5 434.9,215.6 435.2,215.8 435.6,215.9 435.9,216.0 436.3,216.1 436.6,216.2 437.0,216.3 437.3,216.3 437.6,216.3 438.0,216.2 438.3,216.2 438.7,216.1 439.0,216.0 439.4,215.9 439.7,215.7 440.0,215.6 440.4,215.4 440.8,215.3 441.1,215.1 441.4,215.0 441.8,214.9 442.1,214.8 442.5,214.7 442.8,214.7 443.2,214.6 443.5,214.7 443.9,214.7 444.2,214.8 444.5,214.9 444.9,215.1 445.2,215.3 445.6,215.4 445.9,215.6 446.3,215.8 446.6,216.0 447.0,216.2 447.3,216.4 447.6,216.5 448.0,216.7 448.4,216.8 448.7,216.9 449.0,216.9 449.4,216.9 449.7,216.9 450.0,216.9 450.4,216.7 450.8,216.6 451.1,216.4 451.4,216.2 451.8,216.0 452.1,215.8 452.5,215.6 452.8,215.4 453.2,215.2 453.5,215.1 453.9,215.0 454.2,215.0 454.5,215.0 454.9,215.0 455.2,215.1 455.6,215.2 455.9,215.4 456.3,215.5 456.6,215.7 456.9,215.9 457.3,216.1 457.6,216.3 458.0,216.4 458.3,216.5 458.7,216.6 459.0,216.7 459.4,216.7 459.7,216.7 460.0,216.7 460.4,216.6 460.8,216.5 461.1,216.4 461.4,216.3 461.8,216.1 462.1,216.0 462.4,215.9 462.8,215.8 463.2,215.8 463.5,215.7 463.8,215.7 464.2,215.7 464.5,215.7 464.9,215.7 465.2,215.8 465.6,215.9 465.9,216.0 466.3,216.1 466.6,216.2 466.9,216.3 467.3,216.4 467.6,216.5 468.0,216.5 468.3,216.6 468.7,216.6 469.0,216.6 469.3,216.6 469.7,216.6 470.0,216.6 470.4,216.6 470.7,216.6 471.1,216.6 471.4,216.7 471.8,216.7 472.1,216.7 472.4,216.7 472.8,216.7 473.2,216.6 473.5,216.6 473.8,216.5 474.2,216.5 474.5,216.4 474.8,216.3 475.2,216.2 475.6,216.1 475.9,216.0 476.2,215.9 476.6,215.8 476.9,215.7 477.3,215.7 477.6,215.6 478.0,215.6 478.3,215.6 478.7,215.6 479.0,215.7 479.3,215.8 479.7,215.8 480.0,215.9 480.4,216.1 480.7,216.2 481.1,216.4 481.4,216.6 481.8,216.7 482.1,216.9 482.4,217.1 482.8,217.2 483.2,217.4 483.5,217.5 483.8,217.6 484.2,217.6 484.5,217.6 484.9,217.6 485.2,217.6 485.6,217.5 485.9,217.3 486.2,217.2 486.6,217.0 486.9,216.9 487.3,216.7 487.6,216.6 488.0,216.4 488.3,216.3 488.7,216.2 489.0,216.1 489.3,216.0 489.7,215.9 490.0,215.8 490.4,215.7 490.7,215.6 491.1,215.6 491.4,215.5 491.7,215.5 492.1,215.5 492.5,215.5 492.8,215.5 493.1,215.6 493.5,215.6 493.8,215.8 494.2,215.9 494.5,216.0 494.9,216.2 495.2,216.3 495.6,216.5 495.9,216.6 496.2,216.8 496.6,216.9 496.9,217.0 497.3,217.1 497.6,217.2 498.0,217.3 498.3,217.4 498.6,217.5 499.0,217.6 499.3,217.7 499.7,217.7 500.0,217.8 500.4,217.8 500.7,217.8 501.1,217.7 501.4,217.6 501.7,217.5 502.1,217.3 502.5,217.1 502.8,216.9 503.1,216.7 503.5,216.4 503.8,216.2 504.1,216.0 504.5,215.9 504.9,215.7 505.2,215.6 505.5,215.6 505.9,215.6 506.2,215.7 506.6,215.8 506.9,215.9 507.3,216.1 507.6,216.2 508.0,216.3 508.3,216.5 508.6,216.6 509.0,216.8 509.3,216.9 509.7,217.0 510.0,217.1 510.4,217.2 510.7,217.3 511.0,217.4 511.4,217.5 511.7,217.6 512.1,217.7 512.5,217.7 512.8,217.7 513.1,217.7 513.5,217.7 513.8,217.6 514.1,217.5 514.5,217.4 514.9,217.3 515.2,217.2 515.5,217.1 515.9,217.0 516.2,217.0 516.6,217.0 516.9,217.1 517.3,217.2 517.6,217.3 518.0,217.4 518.3,217.5 518.6,217.7 519.0,217.8 519.3,217.8 519.7,217.8 520.0,217.8 520.4,217.8 520.7,217.7 521.0,217.6 521.4,217.4 521.7,217.3 522.1,217.1 522.4,217.0 522.8,216.9 523.1,216.8 523.5,216.8 523.8,216.7 524.1,216.7 524.5,216.7 524.9,216.7 525.2,216.8 525.5,216.8 525.9,216.9 526.2,217.0 526.5,217.0 526.9,217.1 527.3,217.2 527.6,217.3 527.9,217.4 528.3,217.6 528.6,217.7 529.0,217.9 529.3,218.1 529.7,218.3 530.0,218.5 530.4,218.7 530.7,218.8 531.0,219.0 531.4,219.0 531.7,219.0 532.1,219.0 532.4,218.9 532.8,218.7 533.1,218.5 533.4,218.2 533.8,218.0 534.1,217.7 534.5,217.4 534.8,217.2 535.2,217.0 535.5,216.9 535.9,216.8 536.2,216.8 536.6,216.9 536.9,217.0 537.3,217.2 537.6,217.4 537.9,217.5 538.3,217.7 538.6,217.9 539.0,218.1 539.3,218.2 539.7,218.2 540.0,218.3 540.3,218.3 540.7,218.3 541.0,218.3 541.4,218.2 541.7,218.2 542.1,218.2 542.4,218.2 542.8,218.2 543.1,218.3 543.4,218.3 543.8,218.4 544.1,218.5 544.5,218.5 544.8,218.6 545.2,218.6 545.5,218.7 545.9,218.7 546.2,218.7 546.6,218.7 546.9,218.7 547.3,218.6 547.6,218.6 547.9,218.6 548.3,218.6 548.6,218.5 549.0,218.5 549.3,218.5 549.7,218.5 550.0,218.5 550.3,218.4 550.7,218.4 551.0,218.3 551.4,218.2 551.7,218.1 552.1,218.1 552.4,218.0 552.8,217.9 553.1,217.8 553.4,217.8 553.8,217.8 554.2,217.8 554.5,217.9 554.8,218.0 555.2,218.1 555.5,218.3 555.8,218.5 556.2,218.8 556.6,219.0 556.9,219.3 557.2,219.5 557.6,219.7 557.9,219.8 558.3,220.0 558.6,220.0 559.0,220.1 559.3,220.0 559.7,219.9 560.0,219.8 560.3,219.7 560.7,219.5 561.0,219.3 561.4,219.1 561.7,218.9 562.1,218.8 562.4,218.6 562.7,218.5 563.1,218.5 563.4,218.4 563.8,218.5 564.1,218.5 564.5,218.5 564.8,218.6 565.2,218.6 565.5,218.7 565.8,218.8 566.2,218.8 566.6,218.8 566.9,218.9 567.2,218.9 567.6,218.9 567.9,218.9 568.2,219.0 568.6,219.0 569.0,219.1 569.3,219.1 569.6,219.2 570.0,219.3 570.3,219.4 570.7,219.5 571.0,219.6 571.4,219.7 571.7,219.8 572.1,219.8 572.4,219.8 572.7,219.8 573.1,219.7 573.4,219.7 573.8,219.6 574.1,219.6 574.5,219.5 574.8,219.5 575.1,219.5 575.5,219.6 575.8,219.6 576.2,219.7 576.5,219.9 576.9,220.0 577.2,220.1 577.6,220.2 577.9,220.3 578.2,220.4 578.6,220.4 579.0,220.4 579.3,220.3 579.6,220.2 580.0,220.0 580.3,219.9 580.7,219.7 581.0,219.5 581.4,219.4 581.7,219.2 582.1,219.1 582.4,219.1 582.7,219.0 583.1,219.0 583.4,219.1 583.8,219.1 584.1,219.2 584.5,219.3 584.8,219.4 585.1,219.6 585.5,219.7 585.8,219.8 586.2,219.9 586.5,220.0 586.9,220.1 587.2,220.2 587.6,220.3 587.9,220.4 588.2,220.5 588.6,220.6 589.0,220.7 589.3,220.8 589.6,220.8 590.0,220.9 590.3,220.9 590.7,221.0 591.0,221.0 591.4,221.0 591.7,220.9 592.0,220.9 592.4,220.8 592.7,220.7 593.1,220.6 593.4,220.5 593.8,220.3 594.1,220.2 594.5,220.1 594.8,220.0 595.1,219.9 595.5,219.8 595.8,219.8 596.2,219.8 596.5,219.9 596.9,219.9 597.2,220.0 597.5,220.1 597.9,220.3 598.3,220.4 598.6,220.6 598.9,220.8 599.3,220.9 599.6,221.0 600.0,221.1 600.3,221.2 600.7,221.3 601.0,221.3 601.4,221.3 601.7,221.2 602.0,221.2 602.4,221.1 602.7,221.0 603.1,221.0 603.4,220.9 603.8,220.9 604.1,220.8 604.4,220.8 604.8,220.8 605.1,220.8 605.5,220.9 605.8,220.9 606.2,220.9 606.5,221.0 606.9,221.0 607.2,221.1 607.5,221.1 607.9,221.1 608.3,221.1 608.6,221.1 608.9,221.0 609.3,221.0 609.6,221.0 609.9,221.0 610.3,221.0 610.7,221.0 611.0,221.1 611.3,221.1 611.7,221.2 612.0,221.3 612.4,221.4 612.7,221.5 613.1,221.6 613.4,221.7 613.8,221.8 614.1,221.8 614.4,221.8 614.8,221.9 615.1,221.8 615.5,221.8 615.8,221.7 616.2,221.5 616.5,221.4 616.9,221.2 617.2,221.0 617.5,220.8 617.9,220.6 618.3,220.3 618.6,220.1 618.9,219.8 619.3,219.6 619.6,219.4 619.9,219.1 620.3,218.9 620.7,218.7 621.0,218.5 621.3,218.3 621.7,218.0 622.0,217.8 622.4,217.6 622.7,217.3 623.1,217.1 623.4,216.8 623.8,216.6 624.1,216.4 624.4,216.2 624.8,216.0 625.1,215.8 625.5,215.6 625.8,215.5 626.2,215.5 626.5,215.4 626.8,215.4 627.2,215.4 627.5,215.4 627.9,215.5 628.2,215.6 628.6,215.6 628.9,215.7 629.3,215.8 629.6,215.8 629.9,215.8 630.3,215.9 630.7,215.9 631.0,215.9 631.3,215.8 631.7,215.8 632.0,215.7 632.3,215.7 632.7,215.7 633.1,215.6 633.4,215.6 633.7,215.6 634.1,215.6 634.4,215.6 634.8,215.6 635.1,215.7 635.5,215.7 635.8,215.8 636.2,215.8 636.5,215.8 636.8,215.8 637.2,215.8 637.5,215.8 637.9,215.8 638.2,215.8 638.6,215.7 638.9,215.7 639.2,215.6 639.6,215.6 639.9,215.6 640.3,215.5 640.6,215.5 641.0,215.5 641.3,215.4 641.7,215.4 642.0,215.4 642.4,215.3 642.7,215.3 643.1,215.3 643.4,215.2 643.7,215.2 644.1,215.2 644.4,215.1 644.8,215.0 645.1,215.0 645.5,214.9 645.8,214.9 646.2,214.8 646.5,214.8 646.8,214.8 647.2,214.8 647.5,214.8 647.9,214.8 648.2,214.9 648.6,214.9 648.9,215.0 649.2,215.0 649.6,215.1 650.0,215.2 650.3,215.2 650.6,215.3 651.0,215.3 651.3,215.4 651.7,215.4 652.0,215.4 652.4,215.4 652.7,215.4 653.1,215.3 653.4,215.2 653.7,215.2 654.1,215.1 654.4,214.9 654.8,214.8 655.1,214.7 655.5,214.5 655.8,214.4 656.1,214.2 656.5,214.1 656.8,214.0 657.2,213.9 657.5,213.8 657.9,213.7 658.2,213.7 658.6,213.8 658.9,213.8 659.2,213.9 659.6,214.0 660.0,214.1 660.3,214.2 660.6,214.4 661.0,214.5 661.3,214.7 661.6,214.8 662.0,215.0 662.4,215.1 662.7,215.3 663.0,215.4 663.4,215.5 663.7,215.6 664.1,215.7 664.4,215.8 664.8,215.9 665.1,215.9 665.5,215.9 665.8,215.9 666.1,215.8 666.5,215.7 666.8,215.6 667.2,215.5 667.5,215.4 667.9,215.3 668.2,215.1 668.5,215.0 668.9,215.0 669.2,214.9 669.6,214.9 669.9,215.0 670.3,215.0 670.6,215.1 671.0,215.2 671.3,215.3 671.6,215.4 672.0,215.5 672.4,215.6 672.7,215.7 673.0,215.8 673.4,215.8 673.7,215.9 674.0,215.9 674.4,215.9 674.8,215.9 675.1,215.9 675.4,215.9 675.8,215.9 676.1,215.9 676.5,216.0 676.8,216.0 677.2,216.1 677.5,216.2 677.9,216.3 678.2,216.3 678.5,216.4 678.9,216.4 679.2,216.4 679.6,216.4 679.9,216.4 680.3,216.3 680.6,216.3 681.0,216.2 681.3,216.1 681.6,216.1 682.0,216.0 682.4,215.9 682.7,215.9 683.0,215.9 683.4,215.8 683.7,215.8 684.0,215.8 684.4,215.8 684.8,215.8 685.1,215.8 685.4,215.8 685.8,215.9 686.1,215.9 686.5,216.0 686.8,216.1 687.2,216.2 687.5,216.3 687.9,216.5 688.2,216.6 688.5,216.8 688.9,216.9 689.2,217.0 689.6,217.1 689.9,217.2 690.3,217.2 690.6,217.2 690.9,217.1 691.3,217.0 691.6,216.9 692.0,216.8 692.3,216.7 692.7,216.5 693.0,216.4 693.4,216.3 693.7,216.3 694.1,216.2 694.4,216.2 694.8,216.2 695.1,216.3 695.4,216.3 695.8,216.4 696.1,216.4 696.5,216.5 696.8,216.6 697.2,216.7 697.5,216.7 697.8,216.8 698.2,216.9 698.5,216.9 698.9,216.9 699.2,217.0 699.6,217.0 699.9,216.9 700.3,216.9 700.6,216.9 700.9,216.9 701.3,216.9 701.6,216.9 702.0,216.9 702.3,216.9 702.7,216.9 703.0,217.0 703.3,217.0 703.7,217.1 704.1,217.2 704.4,217.3 704.7,217.3 705.1,217.4 705.4,217.4 705.8,217.5 706.1,217.5 706.5,217.4 706.8,217.4 707.2,217.3 707.5,217.2 707.8,217.2 708.2,217.1 708.5,216.9 708.9,216.8 709.2,216.7 709.6,216.6 709.9,216.6" class="up"/>
<polyline points="80.3,227.5 80.6,227.6 80.9,227.6 81.3,227.6 81.7,227.6 82.0,227.6 82.3,227.6 82.7,227.6 83.0,227.5 83.4,227.5 83.7,227.5 84.1,227.5 84.4,227.4 84.8,227.4 85.1,227.4 85.4,227.5 85.8,227.5 86.1,227.5 86.5,227.6 86.8,227.6 87.2,227.7 87.5,227.7 87.8,227.8 88.2,227.8 88.5,227.9 88.9,227.9 89.2,227.9 89.6,227.9 89.9,227.9 90.3,227.9 90.6,227.9 90.9,227.9 91.3,227.8 91.7,227.8 92.0,227.8 92.3,227.8 92.7,227.8 93.0,227.8 93.3,227.8 93.7,227.8 94.1,227.8 94.4,227.8 94.7,227.9 95.1,227.9 95.4,227.9 95.8,227.9 96.1,227.9 96.5,227.9 96.8,228.0 97.2,228.0 97.5,228.0 97.8,228.0 98.2,228.1 98.5,228.1 98.9,228.1 99.2,228.2 99.6,228.2 99.9,228.2 100.2,228.2 100.6,228.3 100.9,228.3 101.3,228.3 101.6,228.3 102.0,228.3 102.3,228.3 102.7,228.3 103.0,228.2 103.3,228.2 103.7,228.2 104.1,228.2 104.4,228.1 104.7,228.1 105.1,228.1 105.4,228.1 105.7,228.1 106.1,228.1 106.5,228.1 106.8,228.2 107.1,228.2 107.5,228.3 107.8,228.4 108.2,228.4 108.5,228.5 108.9,228.6 109.2,228.7 109.6,228.7 109.9,228.7 110.2,228.8 110.6,228.8 110.9,228.7 111.3,228.7 111.6,228.7 112.0,228.6 112.3,228.6 112.7,228.5 113.0,228.5 113.3,228.4 113.7,228.4 114.1,228.4 114.4,228.4 114.7,228.4 115.1,228.4 115.4,228.5 115.7,228.5 116.1,228.5 116.5,228.6 116.8,228.6 117.1,228.7 117.5,228.7 117.8,228.8 118.2,228.8 118.5,228.8 118.9,228.9 119.2,228.9 119.6,228.9 119.9,228.9 120.2,228.9 120.6,228.9 120.9,228.9 121.3,228.9 121.6,228.9 122.0,228.9 122.3,228.9 122.6,228.9 123.0,229.0 123.3,229.0 123.7,229.0 124.0,229.0 124.4,229.0 124.7,229.0 125.1,229.0 125.4,229.0 125.8,229.0 126.1,229.0 126.5,229.0 126.8,229.0 127.1,228.9 127.5,228.9 127.8,228.9 128.2,228.9 128.5,228.9 128.9,228.9 129.2,229.0 129.5,229.0 129.9,229.0 130.2,229.1 130.6,229.1 130.9,229.2 131.3,229.2 131.6,229.3 132.0,229.3 132.3,229.4 132.6,229.5 133.0,229.5 133.4,229.6 133.7,229.6 134.0,229.6 134.4,229.7 134.7,229.7 135.0,229.7 135.4,229.6 135.8,229.6 136.1,229.5 136.4,229.5 136.8,229.4 137.1,229.3 137.5,229.3 137.8,229.2 138.2,229.2 138.5,229.1 138.9,229.1 139.2,229.2 139.5,229.2 139.9,229.3 140.2,229.3 140.6,229.4 140.9,229.5 141.3,229.6 141.6,229.7 141.9,229.8 142.3,229.9 142.6,230.0 143.0,230.0 143.3,230.1 143.7,230.1 144.0,230.1 144.4,230.1 144.7,230.1 145.0,230.0 145.4,230.0 145.8,230.0 146.1,229.9 146.4,229.9 146.8,229.8 147.1,229.8 147.5,229.8 147.8,229.8 148.2,229.8 148.5,229.8 148.9,229.8 149.2,229.8 149.5,229.9 149.9,229.9 150.2,229.9 150.6,230.0 150.9,230.0 151.3,230.1 151.6,230.1 151.9,230.1 152.3,230.2 152.6,230.2 153.0,230.2 153.3,230.2 153.7,230.2 154.0,230.3 154.4,230.3 154.7,230.3 155.0,230.3 155.4,230.3 155.8,230.3 156.1,230.4 156.4,230.4 156.8,230.4 157.1,230.5 157.4,230.5 157.8,230.5 158.2,230.5 158.5,230.6 158.8,230.6 159.2,230.6 159.5,230.7 159.9,230.7 160.2,230.7 160.6,230.7 160.9,230.7 161.3,230.7 161.6,230.7 161.9,230.7 162.3,230.7 162.6,230.7 163.0,230.6 163.3,230.6 163.7,230.6 164.0,230.6 164.3,230.5 164.7,230.5 165.0,230.5 165.4,230.6 165.7,230.6 166.1,230.7 166.4,230.8 166.8,230.9 167.1,231.0 167.4,231.1 167.8,231.2 168.2,231.4 168.5,231.4 168.8,231.5 169.2,231.6 169.5,231.6 169.9,231.6 170.2,231.6 170.6,231.6 170.9,231.5 171.2,231.4 171.6,231.4 171.9,231.3 172.3,231.2 172.6,231.2 173.0,231.1 173.3,231.1 173.7,231.1 174.0,231.1 174.3,231.1 174.7,231.1 175.0,231.2 175.4,231.2 175.7,231.3 176.1,231.4 176.4,231.5 176.7,231.6 177.1,231.7 177.5,231.8 177.8,232.0 178.2,232.1 178.5,232.2 178.8,232.3 179.2,232.4 179.5,232.4 179.9,232.4 180.2,232.4 180.6,232.4 180.9,232.4 181.2,232.3 181.6,232.2 181.9,232.1 182.3,232.1 182.6,232.0 183.0,232.0 183.3,231.9 183.7,231.9 184.0,231.9 184.3,232.0 184.7,232.0 185.0,232.1 185.4,232.2 185.7,232.3 186.1,232.5 186.4,232.6 186.7,232.7 187.1,232.8 187.5,232.9 187.8,233.0 188.1,233.1 188.5,233.2 188.8,233.2 189.2,233.3 189.5,233.3 189.9,233.3 190.2,233.3 190.6,233.3 190.9,233.2 191.2,233.2 191.6,233.2 191.9,233.1 192.3,233.1 192.6,233.1 193.0,233.1 193.3,233.1 193.6,233.1 194.0,233.2 194.3,233.3 194.7,233.4 195.0,233.6 195.4,233.7 195.7,233.9 196.1,234.0 196.4,234.1 196.7,234.3 197.1,234.4 197.5,234.5 197.8,234.5 198.1,234.5 198.5,234.6 198.8,234.6 199.1,234.5 199.5,234.5 199.9,234.5 200.2,234.5 200.5,234.5 200.9,234.5 201.2,234.5 201.6,234.5 201.9,234.6 202.3,234.6 202.6,234.7 203.0,234.9 203.3,235.0 203.6,235.2 204.0,235.4 204.3,235.5 204.7,235.7 205.0,235.9 205.4,236.1 205.7,236.2 206.0,236.3 206.4,236.4 206.7,236.5 207.1,236.5 207.4,236.5 207.8,236.5 208.1,236.5 208.5,236.4 208.8,236.4 209.1,236.4 209.5,236.5 209.9,236.5 210.2,236.7 210.5,236.8 210.9,237.0 211.2,237.2 211.6,237.5 211.9,237.7 212.3,238.0 212.6,238.3 213.0,238.6 213.3,238.8 213.6,239.0 214.0,239.2 214.3,239.4 214.7,239.5 215.0,239.6 215.4,239.6 215.7,239.7 216.0,239.8 216.4,239.8 216.7,240.0 217.1,240.1 217.4,240.4 217.8,240.6 218.1,241.0 218.5,241.4 218.8,241.8 219.1,242.3 219.5,242.9 219.9,243.5 220.2,244.0 220.5,244.6 220.9,245.1 221.2,245.6 221.6,246.1 221.9,246.6 222.3,247.0 222.6,247.5 222.9,248.0 223.3,248.5 223.6,249.0 224.0,249.5 224.3,250.1 224.7,250.7 225.0,251.4 225.4,252.0 225.7,252.7 226.0,253.4 226.4,254.1 226.7,254.7 227.1,255.3 227.4,255.8 227.8,256.3 228.1,256.7 228.4,257.0 228.8,257.2 229.1,257.3 229.5,257.4 229.8,257.4 230.2,257.4 230.5,257.4 230.9,257.3 231.2,257.2 231.6,257.2 231.9,257.1 232.3,257.1 232.6,257.1 232.9,257.2 233.3,257.2 233.6,257.3 234.0,257.4 234.3,257.4 234.7,257.5 235.0,257.6 235.3,257.7 235.7,257.7 236.0,257.8 236.4,257.8 236.7,257.8 237.1,257.8 237.4,257.8 237.8,257.8 238.1,257.8 238.4,257.8 238.8,257.8 239.2,257.8 239.5,257.9 239.8,257.9 240.2,258.0 240.5,258.1 240.8,258.2 241.2,258.2 241.6,258.3 241.9,258.4 242.2,258.4 242.6,258.5 242.9,258.5 243.3,258.5 243.6,258.5 244.0,258.6 244.3,258.6 244.7,258.6 245.0,258.6 245.3,258.7 245.7,258.7 246.0,258.8 246.4,258.8 246.7,258.8 247.1,258.9 247.4,258.9 247.8,258.9 248.1,258.9 248.4,258.9 248.8,258.9 249.2,258.9 249.5,259.0 249.8,259.0 250.2,259.1 250.5,259.1 250.8,259.3 251.2,259.4 251.6,259.6 251.9,259.9 252.2,260.3 252.6,260.7 252.9,261.1 253.3,261.7 253.6,262.3 254.0,263.0 254.3,263.7 254.7,264.5 255.0,265.3 255.3,266.2 255.7,267.0 256.0,267.9 256.4,268.7 256.7,269.6 257.1,270.4 257.4,271.2 257.7,272.1 258.1,272.9 258.4,273.7 258.8,274.5 259.1,275.3 259.5,276.1 259.8,276.9 260.2,277.7 260.5,278.4 260.8,279.2 261.2,279.9 261.6,280.7 261.9,281.3 262.2,281.9 262.6,282.5 262.9,283.0 263.2,283.4 263.6,283.7 264.0,284.0 264.3,284.3 264.6,284.4 265.0,284.5 265.3,284.6 265.7,284.6 266.0,284.6 266.4,284.6 266.7,284.6 267.1,284.5 267.4,284.5 267.7,284.4 268.1,284.4 268.4,284.4 268.8,284.3 269.1,284.3 269.5,284.3 269.8,284.3 270.1,284.2 270.5,284.2 270.8,284.1 271.2,284.0 271.5,283.8 271.9,283.6 272.2,283.4 272.6,283.1 272.9,282.8 273.2,282.4 273.6,282.0 274.0,281.6 274.3,281.2 274.6,280.8 275.0,280.5 275.3,280.2 275.7,279.9 276.0,279.7 276.4,279.5 276.7,279.5 277.0,279.4 277.4,279.5 277.7,279.6 278.1,279.7 278.4,279.9 278.8,280.1 279.1,280.3 279.5,280.5 279.8,280.7 280.1,280.8 280.5,281.0 280.8,281.1 281.2,281.2 281.5,281.3 281.9,281.3 282.2,281.3 282.6,281.3 282.9,281.2 283.3,281.1 283.6,281.0 284.0,280.9 284.3,280.8 284.6,280.7 285.0,280.5 285.3,280.3 285.7,280.1 286.0,279.9 286.4,279.7 286.7,279.5 287.0,279.2 287.4,278.9 287.7,278.6 288.1,278.3 288.4,278.0 288.8,277.6 289.1,277.3 289.5,276.9 289.8,276.6 290.1,276.2 290.5,275.8 290.9,275.5 291.2,275.1 291.5,274.8 291.9,274.5 292.2,274.2 292.5,274.0 292.9,273.9 293.3,273.8 293.6,273.9 293.9,274.1 294.3,274.4 294.6,274.8 295.0,275.4 295.3,276.2 295.7,277.1 296.0,278.1 296.4,279.2 296.7,280.4 297.0,281.7 297.4,283.0 297.7,284.2 298.1,285.5 298.4,286.6 298.8,287.7 299.1,288.7 299.4,289.6 299.8,290.4 300.1,291.2 300.5,291.8 300.8,292.4 301.2,293.0 301.5,293.5 301.9,294.0 302.2,294.4 302.5,294.8 302.9,295.2 303.3,295.6 303.6,296.0 303.9,296.4 304.3,296.8 304.6,297.2 304.9,297.6 305.3,298.0 305.7,298.5 306.0,299.0 306.3,299.5 306.7,300.1 307.0,300.7 307.4,301.3 307.7,301.8 308.1,302.4 308.4,302.9 308.8,303.3 309.1,303.6 309.4,303.8 309.8,304.0 310.1,304.0 310.5,304.0 310.8,304.0 311.2,303.8 311.5,303.7 311.9,303.6 312.2,303.5 312.5,303.4 312.9,303.4 313.3,303.4 313.6,303.5 313.9,303.6 314.3,303.8 314.6,304.1 314.9,304.4 315.3,304.8 315.7,305.3 316.0,305.9 316.3,306.7 316.7,307.6 317.0,308.6 317.4,309.8 317.7,311.1 318.1,312.5 318.4,313.9 318.8,315.4 319.1,316.9 319.4,318.4 319.8,319.7 320.1,320.8 320.5,321.8 320.8,322.5 321.2,322.9 321.5,323.1 321.8,323.0 322.2,322.6 322.5,322.0 322.9,321.2 323.2,320.3 323.6,319.2 323.9,318.1 324.3,317.0 324.6,315.9 324.9,314.9 325.3,314.0 325.7,313.2 326.0,312.6 326.3,312.1 326.7,311.8 327.0,311.6 327.4,311.5 327.7,311.5 328.1,311.7 328.4,311.9 328.7,312.2 329.1,312.6 329.4,313.1 329.8,313.7 330.1,314.5 330.5,315.4 330.8,316.5 331.2,317.7 331.5,319.2 331.8,320.9 332.2,322.7 332.5,324.8 332.9,327.0 333.2,329.3 333.6,331.6 333.9,333.8 334.2,336.0 334.6,337.8 335.0,339.3 335.3,340.4 335.6,341.1 336.0,341.1 336.3,340.6 336.7,339.6 337.0,338.0 337.4,335.9 337.7,333.4 338.1,330.6 338.4,327.5 338.7,324.3 339.1,321.0 339.4,317.8 339.8,314.7 340.1,311.8 340.5,309.1 340.8,306.7 341.1,304.5 341.5,302.5 341.8,300.8 342.2,299.4 342.5,298.1 342.9,297.0 343.2,296.0 343.6,295.2 343.9,294.5 344.2,293.8 344.6,293.2 345.0,292.7 345.3,292.2 345.6,291.8 346.0,291.4 346.3,291.0 346.7,290.7 347.0,290.4 347.4,290.2 347.7,290.0 348.1,289.9 348.4,289.8 348.7,289.8 349.1,289.8 349.4,289.8 349.8,289.8 350.1,289.8 350.5,289.9 350.8,290.0 351.1,290.0 351.5,290.1 351.8,290.2 352.2,290.3 352.5,290.5 352.9,290.8 353.2,291.2 353.6,291.6 353.9,292.2 354.2,292.9 354.6,293.7 355.0,294.7 355.3,295.8 355.6,297.0 356.0,298.2 356.3,299.6 356.6,300.9 357.0,302.3 357.4,303.6 357.7,304.9 358.0,306.2 358.4,307.3 358.7,308.4 359.1,309.4 359.4,310.3 359.8,311.1 360.1,312.0 360.5,312.7 360.8,313.5 361.1,314.2 361.5,315.0 361.8,315.7 362.2,316.5 362.5,317.2 362.9,317.9 363.2,318.5 363.5,319.0 363.9,319.4 364.2,319.7 364.6,319.7 364.9,319.6 365.3,319.3 365.6,318.8 366.0,318.1 366.3,317.3 366.6,316.3 367.0,315.3 367.4,314.2 367.7,313.1 368.0,312.0 368.4,311.0 368.7,310.0 369.0,309.1 369.4,308.3 369.8,307.6 370.1,306.9 370.4,306.3 370.8,305.7 371.1,305.1 371.5,304.6 371.8,304.1 372.2,303.6 372.5,303.1 372.9,302.6 373.2,302.1 373.5,301.7 373.9,301.3 374.2,300.9 374.6,300.5 374.9,300.2 375.3,299.8 375.6,299.5 375.9,299.3 376.3,299.0 376.6,298.8 377.0,298.6 377.3,298.4 377.7,298.2 378.0,298.1 378.4,298.0 378.7,297.9 379.1,297.8 379.4,297.7 379.8,297.7 380.1,297.7 380.4,297.7 380.8,297.7 381.1,297.7 381.5,297.8 381.8,297.9 382.2,298.0 382.5,298.1 382.9,298.3 383.2,298.5 383.5,298.8 383.9,299.0 384.2,299.3 384.6,299.6 384.9,299.9 385.3,300.2 385.6,300.5 385.9,300.9 386.3,301.3 386.6,301.8 387.0,302.2 387.3,302.7 387.7,303.2 388.0,303.7 388.4,304.3 388.7,304.8 389.1,305.4 389.4,306.0 389.8,306.7 390.1,307.4 390.4,308.2 390.8,309.0 391.1,309.9 391.5,311.0 391.8,312.1 392.2,313.3 392.5,314.7 392.8,316.3 393.2,318.1 393.5,320.1 393.9,322.4 394.2,324.9 394.6,327.7 394.9,330.8 395.3,334.2 395.6,337.9 395.9,341.8 396.3,345.9 396.7,350.0 397.0,354.2 397.3,358.3 397.7,362.1 398.0,365.6 398.3,368.6 398.7,370.9 399.1,372.6 399.4,373.4 399.7,373.3 400.1,372.3 400.4,370.5 400.8,367.7 401.1,364.2 401.5,360.0 401.8,355.2 402.2,350.0 402.5,344.5 402.8,338.9 403.2,333.3 403.5,327.8 403.9,322.5 404.2,317.5 404.6,312.8 404.9,308.5 405.2,304.5 405.6,300.8 405.9,297.2 406.3,293.9 406.6,290.7 407.0,287.4 407.3,284.2 407.7,280.8 408.0,277.4 408.3,273.8 408.7,270.2 409.1,266.5 409.4,262.9 409.7,259.3 410.1,255.9 410.4,252.7 410.7,249.8 411.1,247.3 411.5,245.1 411.8,243.2 412.2,241.7 412.5,240.5 412.8,239.6 413.2,238.9 413.5,238.3 413.9,237.9 414.2,237.6 414.6,237.3 414.9,237.1 415.2,237.0 415.6,236.9 415.9,236.8 416.3,236.8 416.6,236.9 417.0,237.1 417.3,237.3 417.7,237.6 418.0,237.9 418.3,238.3 418.7,238.6 419.1,238.9 419.4,239.1 419.7,239.2 420.1,239.3 420.4,239.2 420.7,239.1 421.1,238.9 421.5,238.6 421.8,238.3 422.1,238.0 422.5,237.7 422.8,237.4 423.2,237.2 423.5,237.1 423.9,237.0 424.2,237.0 424.6,237.0 424.9,237.1 425.2,237.2 425.6,237.4 425.9,237.5 426.3,237.6 426.6,237.6 427.0,237.7 427.3,237.7 427.6,237.7 428.0,237.7 428.3,237.7 428.7,237.6 429.0,237.6 429.4,237.6 429.7,237.6 430.1,237.6 430.4,237.6 430.7,237.6 431.1,237.7 431.5,237.7 431.8,237.6 432.1,237.6 432.5,237.5 432.8,237.4 433.2,237.3 433.5,237.1 433.9,236.9 434.2,236.7 434.5,236.6 434.9,236.4 435.2,236.3 435.6,236.2 435.9,236.1 436.3,236.1 436.6,236.2 437.0,236.2 437.3,236.3 437.6,236.5 438.0,236.6 438.3,236.7 438.7,236.8 439.0,236.9 439.4,236.9 439.7,237.0 440.0,236.9 440.4,236.9 440.8,236.8 441.1,236.7 441.4,236.6 441.8,236.5 442.1,236.5 442.5,236.4 442.8,236.4 443.2,236.4 443.5,236.4 443.9,236.5 444.2,236.5 444.5,236.6 444.9,236.6 445.2,236.6 445.6,236.6 445.9,236.6 446.3,236.5 446.6,236.5 447.0,236.4 447.3,236.2 447.6,236.1 448.0,236.0 448.4,235.9 448.7,235.7 449.0,235.7 449.4,235.6 449.7,235.5 450.0,235.5 450.4,235.4 450.8,235.4 451.1,235.4 451.4,235.4 451.8,235.4 452.1,235.4 452.5,235.4 452.8,235.5 453.2,235.5 453.5,235.6 453.9,235.7 454.2,235.8 454.5,235.9 454.9,236.0 455.2,236.2 455.6,236.3 455.9,236.4 456.3,236.5 456.6,236.5 456.9,236.5 457.3,236.5 457.6,236.4 458.0,236.3 458.3,236.1 458.7,235.9 459.0,235.6 459.4,235.4 459.7,235.2 460.0,235.0 460.4,234.8 460.8,234.7 461.1,234.7 461.4,234.7 461.8,234.7 462.1,234.8 462.4,235.0 462.8,235.1 463.2,235.3 463.5,235.5 463.8,235.6 464.2,235.7 464.5,235.8 464.9,235.8 465.2,235.7 465.6,235.6 465.9,235.5 466.3,235.3 466.6,235.1 466.9,234.9 467.3,234.8 467.6,234.6 468.0,234.5 468.3,234.4 468.7,234.4 469.0,234.4 469.3,234.5 469.7,234.6 470.0,234.7 470.4,234.9 470.7,235.1 471.1,235.3 471.4,235.5 471.8,235.7 472.1,235.9 472.4,236.0 472.8,236.1 473.2,236.1 473.5,236.1 473.8,236.0 474.2,235.8 474.5,235.7 474.8,235.5 475.2,235.2 475.6,235.0 475.9,234.8 476.2,234.6 476.6,234.4 476.9,234.2 477.3,234.1 477.6,234.0 478.0,234.0 478.3,234.0 478.7,234.0 479.0,234.0 479.3,234.1 479.7,234.1 480.0,234.1 480.4,234.2 480.7,234.2 481.1,234.3 481.4,234.3 481.8,234.4 482.1,234.5 482.4,234.5 482.8,234.6 483.2,234.8 483.5,234.9 483.8,235.0 484.2,235.2 484.5,235.3 484.9,235.4 485.2,235.5 485.6,235.6 485.9,235.6 486.2,235.6 486.6,235.6 486.9,235.5 487.3,235.4 487.6,235.2 488.0,235.1 488.3,234.8 488.7,234.6 489.0,234.4 489.3,234.2 489.7,234.0 490.0,233.8 490.4,233.7 490.7,233.6 491.1,233.5 491.4,233.5 491.7,233.6 492.1,233.7 492.5,233.9 492.8,234.1 493.1,234.3 493.5,234.5 493.8,234.7 494.2,234.9 494.5,235.1 494.9,235.2 495.2,235.3 495.6,235.3 495.9,235.3 496.2,235.2 496.6,235.1 496.9,234.9 497.3,234.8 497.6,234.6 498.0,234.4 498.3,234.2 498.6,234.0 499.0,233.8 499.3,233.7 499.7,233.6 500.0,233.5 500.4,233.5 500.7,233.5 501.1,233.5 501.4,233.6 501.7,233.6 502.1,233.8 502.5,233.9 502.8,234.0 503.1,234.1 503.5,234.3 503.8,234.4 504.1,234.5 504.5,234.5 504.9,234.6 505.2,234.6 505.5,234.6 505.9,234.7 506.2,234.7 506.6,234.6 506.9,234.6 507.3,234.6 507.6,234.5 508.0,234.5 508.3,234.4 508.6,234.4 509.0,234.3 509.3,234.2 509.7,234.2 510.0,234.1 510.4,233.9 510.7,233.8 511.0,233.7 511.4,233.6 511.7,233.4 512.1,233.3 512.5,233.1 512.8,233.0 513.1,232.8 513.5,232.7 513.8,232.6 514.1,232.6 514.5,232.5 514.9,232.5 515.2,232.5 515.5,232.6 515.9,232.7 516.2,232.8 516.6,233.0 516.9,233.3 517.3,233.5 517.6,233.8 518.0,234.1 518.3,234.3 518.6,234.6 519.0,234.8 519.3,235.0 519.7,235.1 520.0,235.1 520.4,235.1 520.7,235.0 521.0,234.9 521.4,234.7 521.7,234.4 522.1,234.1 522.4,233.8 522.8,233.5 523.1,233.3 523.5,233.0 523.8,232.8 524.1,232.7 524.5,232.5 524.9,232.4 525.2,232.4 525.5,232.4 525.9,232.4 526.2,232.4 526.5,232.5 526.9,232.5 527.3,232.6 527.6,232.6 527.9,232.7 528.3,232.7 528.6,232.8 529.0,232.8 529.3,232.8 529.7,232.8 530.0,232.8 530.4,232.8 530.7,232.7 531.0,232.7 531.4,232.7 531.7,232.7 532.1,232.7 532.4,232.7 532.8,232.8 533.1,232.9 533.4,233.0 533.8,233.2 534.1,233.3 534.5,233.5 534.8,233.6 535.2,233.8 535.5,233.9 535.9,233.9 536.2,234.0 536.6,234.0 536.9,233.9 537.3,233.8 537.6,233.7 537.9,233.5 538.3,233.3 538.6,233.1 539.0,232.8 539.3,232.6 539.7,232.4 540.0,232.2 540.3,232.0 540.7,231.8 541.0,231.7 541.4,231.6 541.7,231.5 542.1,231.4 542.4,231.4 542.8,231.4 543.1,231.4 543.4,231.5 543.8,231.6 544.1,231.7 544.5,231.9 544.8,232.1 545.2,232.3 545.5,232.5 545.9,232.8 546.2,233.0 546.6,233.2 546.9,233.3 547.3,233.4 547.6,233.4 547.9,233.4 548.3,233.3 548.6,233.1 549.0,232.9 549.3,232.7 549.7,232.4 550.0,232.2 550.3,231.9 550.7,231.7 551.0,231.5 551.4,231.4 551.7,231.4 552.1,231.4 552.4,231.4 552.8,231.5 553.1,231.6 553.4,231.8 553.8,231.9 554.2,232.1 554.5,232.2 554.8,232.3 555.2,232.3 555.5,232.3 555.8,232.3 556.2,232.3 556.6,232.3 556.9,232.2 557.2,232.1 557.6,232.1 557.9,232.0 558.3,232.0 558.6,231.9 559.0,231.9 559.3,231.8 559.7,231.8 560.0,231.7 560.3,231.7 560.7,231.6 561.0,231.5 561.4,231.5 561.7,231.4 562.1,231.3 562.4,231.3 562.7,231.3 563.1,231.3 563.4,231.3 563.8,231.4 564.1,231.4 564.5,231.5 564.8,231.6 565.2,231.7 565.5,231.7 565.8,231.8 566.2,231.8 566.6,231.8 566.9,231.7 567.2,231.6 567.6,231.5 567.9,231.4 568.2,231.3 568.6,231.1 569.0,231.0 569.3,230.9 569.6,230.8 570.0,230.8 570.3,230.8 570.7,230.9 571.0,231.0 571.4,231.1 571.7,231.2 572.1,231.4 572.4,231.5 572.7,231.6 573.1,231.7 573.4,231.7 573.8,231.7 574.1,231.7 574.5,231.6 574.8,231.5 575.1,231.4 575.5,231.2 575.8,231.1 576.2,231.0 576.5,230.9 576.9,230.8 577.2,230.8 577.6,230.7 577.9,230.7 578.2,230.7 578.6,230.8 579.0,230.8 579.3,230.8 579.6,230.8 580.0,230.8 580.3,230.7 580.7,230.7 581.0,230.6 581.4,230.6 581.7,230.5 582.1,230.5 582.4,230.4 582.7,230.4 583.1,230.4 583.4,230.4 583.8,230.5 584.1,230.5 584.5,230.6 584.8,230.6 585.1,230.7 585.5,230.7 585.8,230.7 586.2,230.7 586.5,230.7 586.9,230.6 587.2,230.6 587.6,230.5 587.9,230.5 588.2,230.4 588.6,230.4 589.0,230.3 589.3,230.3 589.6,230.3 590.0,230.4 590.3,230.4 590.7,230.4 591.0,230.4 591.4,230.5 591.7,230.5 592.0,230.5 592.4,230.5 592.7,230.5 593.1,230.4 593.4,230.4 593.8,230.3 594.1,230.2 594.5,230.1 594.8,230.0 595.1,229.9 595.5,229.9 595.8,229.8 596.2,229.8 596.5,229.7 596.9,229.7 597.2,229.7 597.5,229.7 597.9,229.7 598.3,229.7 598.6,229.8 598.9,229.8 599.3,229.8 599.6,229.8 600.0,229.8 600.3,229.8 600.7,229.8 601.0,229.7 601.4,229.7 601.7,229.7 602.0,229.8 602.4,229.8 602.7,229.8 603.1,229.8 603.4,229.9 603.8,229.9 604.1,229.9 604.4,230.0 604.8,230.0 605.1,230.0 605.5,230.0 605.8,230.0 606.2,229.9 606.5,229.8 606.9,229.7 607.2,229.6 607.5,229.4 607.9,229.3 608.3,229.2 608.6,229.0 608.9,228.9 609.3,228.8 609.6,228.7 609.9,228.7 610.3,228.7 610.7,228.7 611.0,228.7 611.3,228.8 611.7,228.9 612.0,229.0 612.4,229.1 612.7,229.1 613.1,229.2 613.4,229.3 613.8,229.3 614.1,229.4 614.4,229.4 614.8,229.4 615.1,229.3 615.5,229.3 615.8,229.3 616.2,229.2 616.5,229.2 616.9,229.2 617.2,229.2 617.5,229.2 617.9,229.2 618.3,229.2 618.6,229.2 618.9,229.2 619.3,229.1 619.6,229.1 619.9,229.1 620.3,229.0 620.7,228.9 621.0,228.8 621.3,228.7 621.7,228.6 622.0,228.5 622.4,228.4 622.7,228.3 623.1,228.2 623.4,228.2 623.8,228.1 624.1,228.1 624.4,228.2 624.8,228.2 625.1,228.2 625.5,228.3 625.8,228.3 626.2,228.3 626.5,228.3 626.8,228.3 627.2,228.3 627.5,228.2 627.9,228.2 628.2,228.1 628.6,228.0 628.9,227.9 629.3,227.8 629.6,227.7 629.9,227.7 630.3,227.7 630.7,227.7 631.0,227.8 631.3,228.0 631.7,228.2 632.0,228.4 632.3,228.8 632.7,229.1 633.1,229.5 633.4,229.9 633.7,230.3 634.1,230.7 634.4,231.1 634.8,231.5 635.1,231.8 635.5,232.2 635.8,232.4 636.2,232.7 636.5,232.9 636.8,233.1 637.2,233.2 637.5,233.4 637.9,233.5 638.2,233.6 638.6,233.8 638.9,233.9 639.2,234.0 639.6,234.2 639.9,234.3 640.3,234.5 640.6,234.6 641.0,234.7 641.3,234.8 641.7,234.9 642.0,235.0 642.4,235.0 642.7,235.0 643.1,235.0 643.4,235.0 643.7,234.9 644.1,234.8 644.4,234.8 644.8,234.7 645.1,234.7 645.5,234.7 645.8,234.7 646.2,234.7 646.5,234.7 646.8,234.8 647.2,234.8 647.5,234.9 647.9,235.0 648.2,235.1 648.6,235.2 648.9,235.3 649.2,235.4 649.6,235.5 650.0,235.6 650.3,235.7 650.6,235.8 651.0,235.8 651.3,235.9 651.7,235.9 652.0,235.9 652.4,235.9 652.7,235.9 653.1,235.9 653.4,235.8 653.7,235.7 654.1,235.7 654.4,235.6 654.8,235.5 655.1,235.4 655.5,235.3 655.8,235.2 656.1,235.2 656.5,235.1 656.8,235.1 657.2,235.2 657.5,235.2 657.9,235.3 658.2,235.4 658.6,235.5 658.9,235.6 659.2,235.7 659.6,235.8 660.0,235.9 660.3,236.0 660.6,236.1 661.0,236.2 661.3,236.2 661.6,236.3 662.0,236.3 662.4,236.3 662.7,236.4 663.0,236.4 663.4,236.4 663.7,236.5 664.1,236.5 664.4,236.5 664.8,236.6 665.1,236.6 665.5,236.6 665.8,236.7 666.1,236.7 666.5,236.6 666.8,236.6 667.2,236.6 667.5,236.5 667.9,236.5 668.2,236.4 668.5,236.3 668.9,236.2 669.2,236.1 669.6,236.1 669.9,236.0 670.3,235.9 670.6,235.8 671.0,235.7 671.3,235.6 671.6,235.5 672.0,235.4 672.4,235.3 672.7,235.2 673.0,235.2 673.4,235.1 673.7,235.0 674.0,235.0 674.4,234.9 674.8,234.9 675.1,234.8 675.4,234.8 675.8,234.8 676.1,234.8 676.5,234.8 676.8,234.8 677.2,234.8 677.5,234.9 677.9,234.9 678.2,235.0 678.5,235.0 678.9,235.1 679.2,235.1 679.6,235.2 679.9,235.2 680.3,235.2 680.6,235.2 681.0,235.2 681.3,235.2 681.6,235.2 682.0,235.2 682.4,235.1 682.7,235.0 683.0,235.0 683.4,234.9 683.7,234.8 684.0,234.7 684.4,234.5 684.8,234.4 685.1,234.3 685.4,234.2 685.8,234.1 686.1,234.0 686.5,234.0 686.8,233.9 687.2,233.9 687.5,233.9 687.9,233.9 688.2,233.9 688.5,234.0 688.9,234.0 689.2,234.0 689.6,234.1 689.9,234.1 690.3,234.1 690.6,234.1 690.9,234.2 691.3,234.2 691.6,234.2 692.0,234.3 692.3,234.3 692.7,234.4 693.0,234.4 693.4,234.5 693.7,234.5 694.1,234.5 694.4,234.5 694.8,234.5 695.1,234.5 695.4,234.4 695.8,234.3 696.1,234.2 696.5,234.0 696.8,233.9 697.2,233.7 697.5,233.6 697.8,233.5 698.2,233.4 698.5,233.3 698.9,233.3 699.2,233.3 699.6,233.3 699.9,233.4 700.3,233.4 700.6,233.5 700.9,233.6 701.3,233.6 701.6,233.7 702.0,233.7 702.3,233.7 702.7,233.7 703.0,233.7 703.3,233.7 703.7,233.6 704.1,233.6 704.4,233.5 704.7,233.4 705.1,233.4 705.4,233.4 705.8,233.4 706.1,233.4 706.5,233.4 706.8,233.4 707.2,233.4 707.5,233.5 707.8,233.5 708.2,233.6 708.5,233.6 708.9,233.6 709.2,233.6 709.6,233.5 709.9,233.5" class="down"/>
<text x="395.0" y="430" text-anchor="middle" class="label">Energy - E_F (eV)</text>
<text x="22" y="230" text-anchor="middle" class="label" transform="rotate(-90 22 230)">DOS (states/eV)</text>
<line x1="555" y1="82" x2="583" y2="82" class="up legend-line"/><text x="591" y="86" class="label">spin up</text>
<line x1="555" y1="104" x2="583" y2="104" class="down legend-line"/><text x="591" y="108" class="label">spin down</text>
</svg>
